HIERARCHY
ROOT Hips
{
	OFFSET 0.00000 0.00000 0.00000
	CHANNELS 6 Xposition Yposition Zposition Zrotation Yrotation Xrotation 
	JOINT LHipJoint
	{
		OFFSET 0 0 0
		CHANNELS 3 Zrotation Yrotation Xrotation
		JOINT LeftUpLeg
		{
			OFFSET 1.80322 -1.53100 0.99595
			CHANNELS 3 Zrotation Yrotation Xrotation
			JOINT LeftLeg
			{
				OFFSET 2.25177 -6.18669 0.00000
				CHANNELS 3 Zrotation Yrotation Xrotation
				JOINT LeftFoot
				{
					OFFSET 2.26601 -6.22582 0.00000
					CHANNELS 3 Zrotation Yrotation Xrotation
					JOINT LeftToeBase
					{
						OFFSET 0.23701 -0.65119 2.15848
						CHANNELS 3 Zrotation Yrotation Xrotation
						End Site
						{
							OFFSET 0.00000 -0.00000 1.12949
						}
					}
				}
			}
		}
	}
	JOINT RHipJoint
	{
		OFFSET 0 0 0
		CHANNELS 3 Zrotation Yrotation Xrotation
		JOINT RightUpLeg
		{
			OFFSET -1.93977 -1.53100 0.99595
			CHANNELS 3 Zrotation Yrotation Xrotation
			JOINT RightLeg
			{
				OFFSET -2.28036 -6.26523 0.00000
				CHANNELS 3 Zrotation Yrotation Xrotation
				JOINT RightFoot
				{
					OFFSET -2.25490 -6.19528 0.00000
					CHANNELS 3 Zrotation Yrotation Xrotation
					JOINT RightToeBase
					{
						OFFSET -0.28375 -0.77960 2.23137
						CHANNELS 3 Zrotation Yrotation Xrotation
						End Site
						{
							OFFSET -0.00000 -0.00000 1.17899
						}
					}
				}
			}
		}
	}
	JOINT LowerBack
	{
		OFFSET 0 0 0
		CHANNELS 3 Zrotation Yrotation Xrotation
		JOINT Spine
		{
			OFFSET -0.00088 2.12090 -0.02806
			CHANNELS 3 Zrotation Yrotation Xrotation
			JOINT Spine1
			{
				OFFSET -0.00286 2.09666 0.12974
				CHANNELS 3 Zrotation Yrotation Xrotation
				JOINT Neck
				{
					OFFSET 0 0 0
					CHANNELS 3 Zrotation Yrotation Xrotation
					JOINT Neck1
					{
						OFFSET 0.07328 1.83526 0.07290
						CHANNELS 3 Zrotation Yrotation Xrotation
						JOINT Head
						{
							OFFSET -0.06683 1.74974 -0.49542
							CHANNELS 3 Zrotation Yrotation Xrotation
							End Site
							{
								OFFSET -0.03398 1.85163 -0.17573
							}
						}
					}
				}
				JOINT LeftShoulder
				{
					OFFSET 0 0 0
					CHANNELS 3 Zrotation Yrotation Xrotation
					JOINT LeftArm
					{
						OFFSET 3.02113 1.18018 0.40602
						CHANNELS 3 Zrotation Yrotation Xrotation
						JOINT LeftForeArm
						{
							OFFSET 4.58538 -0.00000 -0.00000
							CHANNELS 3 Zrotation Yrotation Xrotation
							JOINT LeftHand
							{
								OFFSET 2.68935 -0.00000 -0.00000
								CHANNELS 3 Zrotation Yrotation Xrotation
								JOINT LeftFingerBase
								{
									OFFSET 0 0 0
									CHANNELS 3 Zrotation Yrotation Xrotation
									JOINT LeftHandIndex1
									{
										OFFSET 0.58506 -0.00000 -0.00000
										CHANNELS 3 Zrotation Yrotation Xrotation
										End Site
										{
											OFFSET 0.47169 -0.00000 -0.00000
										}
									}
								}
								JOINT LThumb
								{
									OFFSET 0 0 0
									CHANNELS 3 Zrotation Yrotation Xrotation
									End Site
									{
										OFFSET 0.47889 -0.00000 0.47889
									}
								}
							}
						}
					}
				}
				JOINT RightShoulder
				{
					OFFSET 0 0 0
					CHANNELS 3 Zrotation Yrotation Xrotation
					JOINT RightArm
					{
						OFFSET -2.95074 1.18843 0.31430
						CHANNELS 3 Zrotation Yrotation Xrotation
						JOINT RightForeArm
						{
							OFFSET -4.47450 -0.00000 -0.00000
							CHANNELS 3 Zrotation Yrotation Xrotation
							JOINT RightHand
							{
								OFFSET -2.93896 -0.00000 -0.00000
								CHANNELS 3 Zrotation Yrotation Xrotation
								JOINT RightFingerBase
								{
									OFFSET 0 0 0
									CHANNELS 3 Zrotation Yrotation Xrotation
									JOINT RightHandIndex1
									{
										OFFSET -0.40509 -0.00000 -0.00000
										CHANNELS 3 Zrotation Yrotation Xrotation
										End Site
										{
											OFFSET -0.32660 -0.00000 -0.00000
										}
									}
								}
								JOINT RThumb
								{
									OFFSET 0 0 0
									CHANNELS 3 Zrotation Yrotation Xrotation
									End Site
									{
										OFFSET -0.33158 -0.00000 0.33158
									}
								}
							}
						}
					}
				}
			}
		}
	}
}
MOTION
Frames: 8
Frame Time: .0083333
1.1134 15.8154 4.2418 0 0 0 0 0 0 -21 0 0 0 0 0 0 0 0 0 0 0 0 0 0 21 0 0 0 0 0 0 0 0 0 0 0 0 0 0 0 0 0 0 0 0 0 0 -16 0 0 21 0 0 11 0 0 0 -8 0 0 0 0 0 0 0 0 0 0 0 0 0 0 0 0 0 0 0 0 8 0 0 0 0 0 0 0 0 0 0 0 0 0 0 0 0 0
1.1134 15.8154 4.2418 -4.6637 -4.1140 8.9680 0.0000 0.0000 0.0000 -13.0574 -16.7800 -5.8308 1.5326 7.8160 22.1565 0.5732 12.3639 -23.6150 0.0000 -0.0375 -0.1030 0.0000 0.0000 0.0000 21.9458 13.5864 -6.1677 -0.8408 -5.8489 16.3467 0.1172 -12.6833 -16.4585 -0.0348 1.2043 -3.3112 4.9818 -0.0065 -4.3246 -0.2611 -0.0542 -8.1219 -3.0582 -0.3408 -6.0583 6.9528 0.6408 -12.6242 -2.9834 -0.0667 38.7839 -2.5619 0.5508 15.8745 0.0000 -0.0000 0.0000 -83.9778 19.4726 13.1154 18.4762 -28.7626 -4.7762 -0.0000 -0.0000 16.5469 4.1519 13.7583 0.9891 -7.1250 0.0000 -0.0000 -20.8820 42.7586 1.2124 0.0000 -0.0000 0.0000 85.0780 -12.1722 17.9312 -13.5443 22.0795 -2.6544 0.0000 0.0000 13.0428 -11.4874 -4.7260 0.9592 7.1250 -0.0000 -0.0000 12.4939 -34.5834 3.2597
1.1133 15.8154 4.2437 -4.6576 -4.0826 8.9705 0.0000 0.0000 0.0000 -13.0660 -16.8137 -5.8215 1.5335 7.8180 22.1628 0.5740 12.3652 -23.6230 0.0000 -0.0306 -0.0840 0.0000 0.0000 0.0000 21.9401 13.5574 -6.1580 -0.8385 -5.8410 16.3239 0.1158 -12.6816 -16.4762 -0.0336 1.1830 -3.2526 4.9837 0.0099 -4.3508 -0.2814 -0.0345 -8.1176 -3.0808 -0.3312 -6.0372 6.9610 0.6211 -12.6520 -2.9951 -0.0965 38.7896 -2.5738 0.5383 15.8819 0.0000 -0.0000 0.0000 -83.9468 19.4868 13.1369 18.4623 -28.7450 -4.7695 -0.0000 -0.0000 16.5550 4.1944 13.7443 0.9982 -7.1250 0.0000 -0.0000 -20.8410 42.7498 1.2145 0.0000 -0.0000 0.0000 85.1161 -12.1915 17.9621 -13.5793 22.1301 -2.6676 0.0000 0.0000 13.0198 -11.4501 -4.8121 0.9734 7.1250 -0.0000 -0.0000 12.5385 -34.6675 3.2456
1.1127 15.8158 4.2433 -4.6684 -4.0733 8.9836 0.0000 0.0000 0.0000 -13.0419 -16.7916 -5.8485 1.5326 7.8158 22.1559 0.5718 12.3469 -23.5849 0.0001 -0.0579 -0.1591 0.0000 0.0000 0.0000 21.9529 13.5820 -6.1651 -0.8381 -5.8397 16.3200 0.1202 -12.7141 -16.4627 -0.0371 1.2428 -3.4170 4.9806 0.0150 -4.3749 -0.2735 -0.0290 -8.1058 -3.0709 -0.3270 -6.0100 6.9614 0.6285 -12.7029 -3.0255 -0.0766 38.7847 -2.5842 0.5426 15.8928 -0.0000 0.0000 0.0000 -83.9653 19.4696 13.1185 18.4391 -28.7157 -4.7583 -0.0000 -0.0000 16.5486 4.2110 13.7972 1.0060 -7.1250 0.0000 -0.0000 -20.8449 42.8010 1.1871 -0.0000 0.0000 0.0000 85.1239 -12.1539 18.1122 -13.6404 22.2183 -2.6906 0.0000 0.0000 12.8543 -11.3918 -5.2079 1.0478 7.1250 -0.0000 -0.0000 12.6529 -35.0583 3.1533
1.1122 15.8160 4.2448 -4.6559 -4.0339 8.9896 0.0000 0.0000 0.0000 -13.0492 -16.8113 -5.8516 1.5320 7.8145 22.1521 0.5746 12.3240 -23.5855 0.0001 -0.0477 -0.1309 0.0000 0.0000 0.0000 21.9446 13.5696 -6.1551 -0.8371 -5.8365 16.3107 0.1209 -12.7369 -16.4889 -0.0339 1.1890 -3.2691 4.9669 0.0191 -4.4010 -0.2843 -0.0250 -8.1141 -3.0746 -0.3245 -6.0036 6.9431 0.6155 -12.6779 -3.0199 -0.0903 38.7747 -2.5801 0.5348 15.8803 -0.0000 -0.0000 0.0000 -83.9558 19.5173 13.1317 18.4341 -28.7094 -4.7559 -0.0000 -0.0000 16.5587 4.2160 13.7814 1.0060 -7.1250 0.0000 -0.0000 -20.8352 42.7867 1.1942 -0.0000 -0.0000 0.0000 85.1443 -12.1620 18.0837 -13.6326 22.2071 -2.6877 0.0000 0.0000 12.9627 -11.3667 -5.0392 1.0116 7.1250 -0.0000 -0.0000 12.6444 -34.8894 3.2043
1.1117 15.8163 4.2457 -4.6563 -4.0084 9.0001 0.0000 0.0000 0.0000 -13.0409 -16.8229 -5.8619 1.5315 7.8132 22.1480 0.5754 12.3092 -23.5770 0.0001 -0.0461 -0.1266 0.0000 0.0000 0.0000 21.9476 13.5729 -6.1532 -0.8363 -5.8337 16.3026 0.1229 -12.7612 -16.4985 -0.0333 1.1774 -3.2371 4.9616 0.0255 -4.4241 -0.2888 -0.0177 -8.1192 -3.0764 -0.3206 -5.9951 6.9332 0.6085 -12.6812 -3.0254 -0.0952 38.7685 -2.5813 0.5305 15.8774 0.0000 -0.0000 0.0000 -83.9540 19.5468 13.1246 18.4233 -28.6958 -4.7508 -0.0000 -0.0000 16.5807 4.2255 13.7720 1.0076 -7.1250 0.0000 -0.0000 -20.8238 42.7789 1.1977 0.0000 -0.0000 0.0000 85.1628 -12.1632 18.1380 -13.6469 22.2277 -2.6931 0.0000 0.0000 12.9154 -11.3840 -5.0657 1.0185 7.1250 -0.0000 -0.0000 12.6349 -34.9166 3.1932
1.1111 15.8166 4.2467 -4.6586 -3.9849 9.0116 0.0000 0.0000 0.0000 -13.0297 -16.8320 -5.8743 1.5310 7.8120 22.1446 0.5763 12.2929 -23.5683 0.0000 -0.0441 -0.1212 0.0000 0.0000 0.0000 21.9529 13.5800 -6.1500 -0.8353 -5.8303 16.2929 0.1251 -12.7871 -16.5073 -0.0326 1.1656 -3.2046 4.9568 0.0317 -4.4469 -0.2918 -0.0106 -8.1271 -3.0769 -0.3169 -5.9901 6.9202 0.6020 -12.6800 -3.0290 -0.0989 38.7620 -2.5809 0.5266 15.8732 -0.0000 -0.0000 0.0000 -83.9546 19.5827 13.1119 18.4142 -28.6843 -4.7464 -0.0000 -0.0000 16.6128 4.2285 13.7510 1.0068 -7.1250 0.0000 -0.0000 -20.8139 42.7596 1.2075 -0.0000 -0.0000 0.0000 85.1796 -12.1664 18.1974 -13.6572 22.2425 -2.6970 0.0000 0.0000 12.8581 -11.4173 -5.0915 1.0268 7.1250 -0.0000 -0.0000 12.6123 -34.9438 3.1787
1.1105 15.8168 4.2479 -4.6627 -3.9619 9.0232 0.0000 0.0000 0.0000 -13.0170 -16.8409 -5.8891 1.5315 7.8131 22.1478 0.5779 12.2754 -23.5639 0.0000 -0.0427 -0.1174 0.0000 0.0000 0.0000 21.9599 13.5827 -6.1427 -0.8334 -5.8240 16.2746 0.1271 -12.8095 -16.5129 -0.0319 1.1521 -3.1675 4.9546 0.0384 -4.4707 -0.2947 -0.0028 -8.1377 -3.0788 -0.3131 -5.9872 6.9064 0.5946 -12.6729 -3.0316 -0.1036 38.7552 -2.5800 0.5221 15.8674 0.0000 0.0000 0.0000 -83.9541 19.6246 13.0969 18.4049 -28.6725 -4.7419 -0.0000 -0.0000 16.6523 4.2305 13.7163 1.0048 -7.1250 0.0000 -0.0000 -20.8003 42.7274 1.2240 0.0000 0.0000 0.0000 85.1961 -12.1753 18.2557 -13.6663 22.2556 -2.7004 0.0000 0.0000 12.8023 -11.4458 -5.1260 1.0364 7.1250 -0.0000 -0.0000 12.5949 -34.9796 3.1630
